<?xml version="1.0" encoding="utf-8"?>
<!-- Generator: Adobe Illustrator 25.0.0, SVG Export Plug-In . SVG Version: 6.00 Build 0)  -->
<svg version="1.1" xmlns="http://www.w3.org/2000/svg" xmlns:xlink="http://www.w3.org/1999/xlink" x="0px" y="0px"
	 viewBox="0 0 184.3 184.3" style="enable-background:new 0 0 184.3 184.3;" xml:space="preserve">
<style type="text/css">
	.st0{fill:#1E1E1C;}
	.st1{fill:#FFFFFF;stroke:#FFFFFF;stroke-width:1.1724;stroke-miterlimit:10;}
</style>
<g id="figuras">
	<path class="st0" d="M112,100.6C112,100.6,112,100.6,112,100.6C112,100.6,112,100.6,112,100.6z"/>
	<g>
		<path class="st1" d="M177,93.7c-0.9-6.4-7.2-11.8-12.8-13.3c-7.3-2-13.9,2.6-19.3,6.2c-2.8,1.9-5.5,4-8.2,6
			c-1.8,1.4-3.7,2.8-5.6,4.1c-1.3,1-2.7,1.9-4.1,2.8c-2,1.4-4.1,2.8-6,4.2c-0.2,0.2-0.3,0.2-0.4,0.3c-0.1-0.1-0.3,0.1-0.7,0.5
			c-0.2,0.2-0.5,0.5-0.5,0.5l-0.2,0.1l0.2,0.2c0,0,0.2,0.2,0.6,0.7l3.7,4.4l0.2-0.1c9.7-8.1,18.1-13.8,28.6-20.3
			c3.6-2.2,6.8-4,10.5-2.6c3.5,1.3,6.4,4.5,7.4,8.2c1.4,5.5-4.2,9.5-8.6,12.7c-0.6,0.4-1.2,0.9-1.8,1.3c-6.5,4.8-13.2,9.6-19.7,14.3
			c-2,1.4-4,2.8-6,4.3c-0.5,0.4-1.1,0.8-1.6,1.1c-2.5,1.8-5.1,3.6-7.6,5.7c-1.5,1.2-3.1,2.3-4.6,3.3c-1.4,0.9-2.7,1.8-4.1,2.9
			c-3.4,2.7-7.1,5.2-10.6,7.7c-2.4,1.7-5,3.5-7.4,5.3c-5.2,3.8-12,4.9-17.3,2.7c-1.2-0.5-2.4-1-3.6-1.5c-0.6-0.3-1.2-0.5-1.8-0.8
			c-1.6-0.7-3.2-1.2-4.8-1.7c-0.7-0.2-1.4-0.4-2.1-0.7c-1.5-0.5-3.1-1.1-4.5-1.7c-1.3-0.5-2.7-1.1-4.1-1.6c-1.2-0.4-2.4-0.8-3.7-1.2
			c-1.5-0.5-3-1-4.5-1.5c-3.2-1.1-6.5-2.4-9.6-3.6c-2.2-0.9-4.5-1.7-6.7-2.6l-0.6-0.2c-4.7-1.7-9.5-3.5-13.2-6.9
			c-4.2-3.8-7-9.7-7.5-15.8c-0.5-7.1,2.3-14.4,7.5-18.9c5.7-5,13.1-6.6,22.2-4.7c3.9,0.8,7.4,2.2,11.6,3.9c1.3,0.5,2.7,1,4,1.5
			c1.7,0.6,3.4,1.2,5,1.9c0.8,0.3,1.6,0.7,2.4,1.1c1.6,0.7,3.2,1.5,4.9,2.1c1.2,0.4,2.5,0.7,3.7,1.1c1.1,0.3,2.2,0.5,3.3,0.9
			c2.1,0.7,4.1,1.6,6.1,2.4c1.5,0.6,3,1.3,4.5,1.8c4.6,1.7,8.3,3.1,11.8,4.3c1,0.4,2.1,0.8,3.1,1.2c1.4,0.6,2.9,1.2,4.4,1.6
			c-2,4-5.6,7.1-9.4,7.9c-1.6,0.4-3.1,0.4-4.7,0.3l-0.2,0c-2.3,0-4.1-0.8-6.2-1.7l-0.4-0.2c-3-1.2-6.1-2.3-9-3.3
			c-1.2-0.4-2.4-0.8-3.6-1.2c-1.4-0.5-2.9-1.1-4.2-1.8c-1.7-0.8-3.6-1.6-5.4-2.2c-0.8-0.2-0.9-0.3-1.4,0.4c-0.3,0.4-0.4,0.9-0.6,1.5
			c-0.1,0.3-0.2,0.5-0.3,0.8c-0.3,0.7-1.2,3.5-1.2,3.6l-0.1,0.2l0.2,0c0,0,0.6,0.1,1.4,0.6c1.3,0.8,2.9,1.4,4.3,1.9l0.7,0.3
			c2,0.8,4.2,1.5,6.9,2.3c2.2,0.7,4.5,1.5,6.6,2.3c6,2.2,12.2,4.5,19,3.1c5-1,9.4-4.3,12.5-9.4c1.9-3.1,2.9-5.9,2.9-8.4
			c0-0.1,0-0.2,0-0.4c0.1-0.7,0.1-1.3-0.1-1.6c-0.2-0.3-0.6-0.4-0.9-0.6c-0.1,0-0.2-0.1-0.2-0.1c-1.7-0.6-3.8-1.3-5.7-2.1
			c-1.1-0.4-2.1-0.8-3.2-1.3c-2.1-0.8-4.4-1.7-6.6-2.5c-4.2-1.4-8.5-3.1-12.6-4.7c-4.1-1.6-8.4-3.3-12.7-4.8
			c-5.3-1.8-10.7-3.8-17.2-6.4c-0.6-0.3-1.3-0.5-1.9-0.8c-5.1-2.1-10.4-4.2-16-4.6c-9.5-0.6-19.4,3.9-25.8,11.7
			c-3.4,4.1-5.6,8.8-6.4,13.6c-0.6,3.7,0,7.4,0.5,11l0,0.1c1.6,10.3,8.1,18.7,17.8,23c2.9,1.3,6,2.3,9.1,3.3
			c1.3,0.4,2.6,0.9,3.9,1.3c3,1.1,6,2.1,8.7,3.1c1.9,0.7,3.8,1.4,5.6,2c5,1.8,10.1,3.6,15.1,5.7l7.3,3.1c0.5,0.2,1,0.4,1.4,0.6
			c1.5,0.7,3,1.4,4.6,1.7c1.4,0.3,2.9,0.5,4.5,0.5c0.9,0,1.9-0.1,2.9-0.2c4.7-0.5,8.7-1.9,11.9-4.2c4.6-3.3,9.1-6.8,13.5-10.2
			l0.5-0.4c11.4-8.7,23.2-16.9,34.4-24.5c2.7-1.8,5.3-3.7,7.9-5.6c1.2-0.8,2.3-1.7,3.5-2.5l0.4-0.3c1.5-1,3-2.1,4.4-3.3
			c0.5-0.4,0.9-0.7,1.4-1.1c2.8-2.1,5.7-4.4,7.7-7.3C176.8,102.4,177.7,97.9,177,93.7z"/>
		<path class="st1" d="M88.4,29.9c-0.2,0.2-0.3,0.4-0.4,0.5c-0.4,0.4-1,1.5-1,1.6l0,0.1c-1.2,2-1.9,3.4-2.6,6.6
			c-1,3.5,0.3,7.6,3.2,10c1.6,1.3,3.6,2,5.6,2c0.9,0,1.8-0.1,2.7-0.4c4.1-1.3,6.8-5.2,6.7-9.8c0.1-2.8-1-5.7-3.3-9.1L99,31.2
			c-0.2-0.3-0.2-0.3-0.5-0.7l-0.4-0.5l0,0l0.4-0.3c0.1-0.1,0.2-0.1,0.2-0.2c0.5-0.4,1-0.7,1.5-1c0.4-0.2,0.8-0.5,1.2-0.8
			c1.7-1.2,3.1-1.4,4.8-1.6c0.3,0,0.6-0.1,0.9-0.1c9.7-1.3,17.1,4.4,18.6,10.6c0.9,3.5,1.4,8.5-1.2,12.2c-1.1,1.6-2,3.3-2.8,5
			c-0.8,1.7-1.7,3.4-2.8,4.9c-0.4,0.6-0.6,1-0.5,1.2l0.1,0.1c0,0,2,1.6,2.8,2.1c0.7,0.5,3.1,1.2,3.1,1.2l0.1,0l1.1-1.5
			c0.3-0.5,0.6-1.2,0.8-1.8c0.2-0.6,0.4-1.1,0.6-1.5c0.3-0.4,0.6-0.7,0.9-1c0.4-0.3,0.7-0.7,1-1.2c4.3-8.4,5.2-16,2.8-22.4
			c-3-8.1-10.7-14.4-18.4-14.9c-4.1-0.3-8.3,0.6-12.5,1.5c-2.1,0.5-4.2,1.6-6.5,3.5c-0.4,0.3-0.9,0.6-1.1,0.7c-0.3-0.3-1-1-1.3-1.3
			c-0.8-0.7-1.7-1.4-2.7-2.1c-7.5-4.9-17.5-5.3-25.4-1.1c-7.6,4.1-12.9,12.2-13,20c0,1.7,0.1,3.5,0.5,5.5c1.1,5.5,3.9,10.3,6.4,14.5
			c3.6,5.9,8.1,10.8,14.5,16.1c1.7,1.4,3.5,3.1,5.1,4.8c1.6,1.6,3.2,3.2,4.8,4.5c2.8,2.4,9.5,6.5,9.6,6.5l0.1,0.1l0.1-0.1
			c0,0,3.3-1.7,5-2.8c1.7-1.1,3.3-2.4,4.9-3.6c1-0.8,1.9-1.6,2.9-2.3c3.2-2.4,6-5.1,8.9-7.9l0.9-0.8c0.6-0.6,1.1-1,1.6-1.5
			c1.4-1.3,2.5-2.3,3.8-4.3l0.1-0.2l-5-3.3l0,0l-0.3-0.3l-0.1,0.2c-1.3,1.4-5.1,5.3-7.8,7.8c-0.8,0.7-1.5,1.4-2.3,2.2
			c-1.7,1.6-3.5,3.3-5.4,4.8c-2.4,1.7-4.6,3-6.5,3.9c-0.4,0.2-0.6,0.2-0.7,0.3c-0.2-0.1-0.6-0.5-0.7-0.6c-0.3-0.3-0.6-0.5-0.9-0.8
			L87,80.1c-5.9-4.6-12.7-10.2-18.6-17c-3.6-4.2-7.2-8.7-9.1-14.1c-1.1-3.2-2.6-9.4-0.4-14.8c2.1-5.1,6.7-8.6,12.4-9.6
			c6.1-1,12.6,0.9,16.9,5L88.4,29.9z M92.2,44.2c-3.2-1.8-0.7-6.9-0.4-7.5c0.4-0.7,0.8-1.6,1.4-2.5c0.5,0.7,1.2,1.6,1.3,1.8
			c1,1.8,1.5,3.4,1.5,4.7c0,1.4-0.9,2.9-2,3.5C93.4,44.7,92.9,44.6,92.2,44.2z"/>
	</g>
</g>
<g id="drop">
</g>
<g id="área">
</g>
</svg>
